**ABCDEFGHIJKLMNOPQRSTUVWXYZabcdefghijklmnopqrstuvwxyz**************************
**PARASOLID !"#$%&'()*+,-./:;<=>?@[\]^_`{|}~0123456789**************************
**PART1;
MC=AMD64;
MC_MODEL=Intel64 Family 15 Model 6 Stepping 1, GenuineIntel;
MC_ID=unknown;
OS=Windows_NT;
OS_RELEASE=unknown;
FRU=Parasolid Version 33.1, build 255,  1- 8-2022;
APPL=SOLIDWORKS 2022-2022167;
SITE=;
USER=unknown;
FORMAT=text;
GUISE=transmit;
KEY=FILEcylinder.x_t;
DATE=Sat Aug 20 16:21:40 2022;
**PART2;
SCH=SCH_3301255_33103;
USFLD_SIZE=0;
**PART3;
**END_OF_HEADER*****************************************************************
T51 : TRANSMIT FILE created by modeller version 330125523 SCH_3301255_33103_1300
6230 0 12 35 CCCI7 lattice222 0 CCCI4 mesh1006 0 I8 polyline1008 0 CCCCCCCDI5 ow
ner1040 0 CCCCCCI13 boundary_mesh1006 0 I17 boundary_polyline1008 0 CCCA16 index
_map_offset0 0 1 dA9 index_map82 0 A17 node_id_index_map82 0 A20 schema_embeddin
g_map82 0 A5 child12 0 A14 lowest_node_id0 0 1 dA16 mesh_offset_data206 0 Z1 131
 2 3 0 0 0 0 0 0 0 1e3 1e-8 0 4 0 1 0 1 1 5 6 7 0 0 0 8 9 0 0 0 0 0 0 0 0 81 255
 2 2 127 10 1 11 0 0 0 0 12 70 11 CI9 list_type0 0 1 uI10 notransmit0 0 1 lCCCDC
CDI12 finger_index0 0 1 dI12 finger_block1012 0 CZ3 0 4 T1 0 0 8 20 1 13 13 13 2
55 5 31 0 1 0 14 0 0 15 0 51 255 6 30 0 14 16 0 0 -0 .1 0 0 -1 0 .03 0 0 -1 31 2
55 7 25 0 17 18 0 0 +0 0 0 0 1 0 0 0 1 .03 19 8 CCCCCCCA5 owner12 0 Z8 9 0 1 15
 0 19 V0 16 255 9 5 0 ?20 0 17 18 0 0 1 17 255 20 0 21 20 20 0 22 9 0 0 +16 17 2
0 0 ?23 9 24 7 0 0 1 31 18 7 0 9 25 7 0 +0 .1 0 0 1 0 0 0 1 .03 31 25 90 0 26 27
 18 0 +0 .1 0 0 1 0 0 0 1 .027 16 26 71 0 ?28 24 0 25 0 0 1 31 27 91 0 24 0 25 0
 +0 0 0 0 1 0 0 0 1 .027 16 24 68 0 ?29 17 26 27 0 0 1 17 29 0 30 29 29 0 31 24
 0 0 +15 255 30 56 0 29 32 33 17 31 0 34 31 31 0 29 24 0 0 -15 34 77 0 31 35 36
 14 255 35 74 37 ?0 32 34 5 38 -0 0 0 32 19 15 36 78 0 28 35 0 17 28 0 36 28 28
 0 39 26 0 0 +17 39 0 40 39 39 0 28 26 0 0 -15 40 63 0 39 41 21 14 41 1 42 ?32 1
4 40 5 43 +0 0 32 14 19 15 21 4 0 20 41 0 81 1 42 129 44 41 45 0 37 46 47 14 32
 18 46 ?35 41 30 5 16 -0 0 35 41 19 14 14 27 48 ?41 0 49 5 6 -0 0 41 0 19 50 255
 43 3 0 41 38 16 0 +0 .1 0 0 1 0 0 0 1 13 19 10 0 0 0 0 0 0 8 14 51 38 87 0 35 0
 43 0 +0 0 0 0 1 0 .027 0 0 1 50 16 24 0 32 43 6 0 +0 0 0 0 1 0 0 0 1 81 1 48 13
1 44 14 50 0 46 0 51 15 49 26 0 22 14 52 17 22 0 49 22 22 0 20 9 0 0 -15 52 28 0
 23 14 0 17 23 0 52 23 23 0 53 17 0 0 +17 53 0 33 53 53 0 23 17 0 0 -15 33 19 0
 53 32 0 80 255 1 44 54 55 9000 1 1 1 1 1 1 1 1 0 FFFFTFTFFFFFFF1 81 1 50 114 56
 14 0 48 0 45 57 81 1 46 130 44 32 58 0 42 48 59 82 255 1 51 632356967 81 1 58 1
16 56 32 0 46 45 60 61 82 1 59 632094826 80 1 56 0 62 8001 0 0 0 0 3 5 0 0 0 FFF
FTFTFFFFFFF2 81 1 45 115 56 41 0 42 50 58 63 81 1 60 117 56 35 0 37 58 0 64 83 2
55 3 61 .792156862745098 .819607843137255 .933333333333333 81 1 37 128 44 35 60
 0 0 42 65 83 3 64 .792156862745098 .819607843137255 .933333333333333 82 1 65 -1
926365078 83 3 63 .792156862745098 .819607843137255 .933333333333333 79 255 15 6
2 SDL/TYSA_COLOUR83 3 57 .792156862745098 .819607843137255 .933333333333333 79 1
4 55 SWEntUnchanged82 1 47 630390890 19 15 32 0 1 0 8 5 S0 74 4 CI16 index_map_o
ffset0 0 1 dCCZ20 13 8 0 0 66 67 48 68 69 11 60 2 0 0 0 0 0 0 0 0 0 0 0 0 81 2 6
6 44 70 1 0 67 0 0 0 71 81 2 67 48 72 1 66 68 0 0 0 73 81 2 68 53 74 1 67 69 0 0
 0 0 81 1 69 99 75 1 68 11 0 0 76 81 2 11 105 77 1 69 2 0 0 78 0 80 2 77 79 80 8
004 0 0 0 0 3 5 0 0 0 FFTFFFFFFFFFFF2 3 83 1 78 1 79 16 80 SDL/TYSA_DENSITY80 1
 75 81 82 9000 1 1 1 1 1 1 1 1 0 FFTFFFFFFFFFFF1 82 1 76 9617 79 10 82 BODY_MATC
H80 2 74 83 84 9000 0 0 0 0 3 5 0 0 0 FFTFFFFFFFFFFF9 1 79 16 84 BODY_RECIPE_200
180 2 72 85 86 9000 0 0 0 0 3 5 0 0 0 FFTFFFFFFFFFFF9 1 82 1 73 46 79 30 86 LAST
_BODY_MODIFYING_FEATURE_ID80 2 70 87 88 9000 0 0 0 0 3 5 0 0 0 FFTFFFFFFFFFFF9 1
 82 1 71 105 79 19 88 ENT_TIME_STAMP_200180 2 10 89 90 9000 0 0 0 0 3 5 0 0 0 FF
TFFFFFFFFFFF9 1 82 1 12 102 79 12 90 ATOM_ID_20011 0 
