**ABCDEFGHIJKLMNOPQRSTUVWXYZabcdefghijklmnopqrstuvwxyz**************************
**PARASOLID !"#$%&'()*+,-./:;<=>?@[\]^_`{|}~0123456789**************************
**PART1;
MC=unknown;
MC_MODEL=unknown;
MC_ID=unknown;
OS=unknown;
OS_RELEASE=unknown;
FRU=sdl_parasolid_customer_support;
APPL=parasolid_acceptance_tests;
SITE=unknown;
USER=unknown;
FORMAT=text;
GUISE=transmit;
KEY=C:/Users/vrait/Documents/PHASTA/problems/cylinder/cylinder_nat.x_t;
FILE=C:/Users/vrait/Documents/PHASTA/problems/cylinder/cylinder_nat.x_t;
DATE=unknown;
**PART2;
SCH=SCH_3400153_34001;
USFLD_SIZE=1;
**PART3;
**END_OF_HEADER*****************************************************************
T51 : TRANSMIT FILE created by modeller version 340015323 SCH_3400153_34001_1300
6231 1 12 36 CCCI7 lattice222 0 CCCI4 mesh1006 0 I8 polyline1008 0 CCCCCCCDI5 ow
ner1040 0 CCCI16 boundary_lattice222 0 CCCI13 boundary_mesh1006 0 I17 boundary_p
olyline1008 0 CCCA16 index_map_offset0 0 1 dA9 index_map82 0 A17 node_id_index_m
ap82 0 A20 schema_embedding_map82 0 A5 child12 0 A14 lowest_node_id0 0 1 dA16 me
sh_offset_data206 0 Z1 131 2 3 0 0 0 0 0 0 0 1e3 1e-8 0 4 0 1 0 1 1 5 0 6 7 0 0
 0 8 9 0 0 0 0 0 0 0 0 0 81 255 2 2 127 10 1 11 0 0 0 0 12 0 70 11 CI9 list_type
0 0 1 uI10 notransmit0 0 1 lCCCDCCDI12 finger_index0 0 1 dI12 finger_block1012 0
 CZ3 0 4 T1 0 0 8 20 1 13 13 0 13 255 5 31 0 1 0 14 0 0 15 0 0 51 255 6 30 0 14
 16 0 0 -0 .1 0 0 -1 0 .03 0 0 -1 0 31 255 7 25 0 17 18 0 0 +0 0 0 0 1 0 0 0 1 .
03 0 19 9 CCCCCCI5 frame230 0 CA5 owner12 0 Z8 9 0 1 15 0 19 0 V0 0 16 255 9 5 0
 ?20 0 17 18 0 0 1 0 17 255 20 0 21 20 20 0 22 9 0 0 +0 16 17 20 0 ?23 9 24 7 0
 0 1 0 31 18 7 0 9 25 7 0 +0 .1 0 0 1 0 0 0 1 .03 0 31 25 90 0 26 27 18 0 +0 .1
 0 0 1 0 0 0 1 .027 0 16 26 71 0 ?28 24 0 25 0 0 1 0 31 27 91 0 24 0 25 0 +0 0 0
 0 1 0 0 0 1 .027 0 16 24 68 0 ?29 17 26 27 0 0 1 0 17 29 0 30 29 29 0 31 24 0 0
 +0 15 255 30 56 0 29 32 33 0 17 31 0 34 31 31 0 29 24 0 0 -0 15 34 77 0 31 35 3
6 0 14 255 35 74 37 ?0 32 34 5 38 -0 0 0 32 19 0 15 36 78 0 28 35 0 0 17 28 0 36
 28 28 0 39 26 0 0 +0 17 39 0 40 39 39 0 28 26 0 0 -0 15 40 63 0 39 41 21 0 14 4
1 1 42 ?32 14 40 5 43 +0 0 32 14 19 0 15 21 4 0 20 41 0 0 81 1 42 129 44 41 45 0
 37 46 47 0 14 32 18 46 ?35 41 30 5 16 -0 0 35 41 19 0 14 14 27 48 ?41 0 49 5 6
 -0 0 41 0 19 0 50 255 43 3 0 41 38 16 0 +0 .1 0 0 1 0 0 0 1 0 13 19 10 0 0 0 0
 0 0 8 14 0 51 38 87 0 35 0 43 0 +0 0 0 0 1 0 .027 0 0 1 0 50 16 24 0 32 43 6 0
 +0 0 0 0 1 0 0 0 1 0 81 1 48 131 44 14 50 0 46 0 51 0 15 49 26 0 22 14 52 0 17
 22 0 49 22 22 0 20 9 0 0 -0 15 52 28 0 23 14 0 0 17 23 0 52 23 23 0 53 17 0 0 +
0 17 53 0 33 53 53 0 23 17 0 0 -0 15 33 19 0 53 32 0 0 80 7 CCCCCDI12 legal_owne
rs0 16 1 lCZ1 44 54 55 9000 1 1 1 1 1 1 1 1 0 FFFFTFTFFFFFFFFF1 0 81 1 50 114 56
 14 0 48 0 45 57 0 81 1 46 130 44 32 58 0 42 48 59 0 82 255 1 51 632356967 0 81
 1 58 116 56 32 0 46 45 60 61 0 82 1 59 632094826 0 80 1 56 0 62 8001 0 0 0 0 3
 5 0 0 0 FFFFTFTFFFFFFFFF2 0 81 1 45 115 56 41 0 42 50 58 63 0 81 1 60 117 56 35
 0 37 58 0 64 0 83 255 3 61 .792156862745098 .819607843137255 .933333333333333 0
 81 1 37 128 44 35 60 0 0 42 65 0 83 3 64 .792156862745098 .819607843137255 .933
333333333333 0 82 1 65 -1926365078 0 83 3 63 .792156862745098 .819607843137255 .
933333333333333 0 79 255 15 62 SDL/TYSA_COLOUR0 83 3 57 .792156862745098 .819607
843137255 .933333333333333 0 79 14 55 SWEntUnchanged0 82 1 47 630390890 0 19 15
 32 0 1 0 8 5 0 S0 0 74 4 CI16 index_map_offset0 0 1 dCCZ20 13 8 0 0 66 67 48 68
 69 11 60 2 0 0 0 0 0 0 0 0 0 0 0 0 0 81 2 66 44 70 1 0 67 0 0 0 71 0 81 2 67 48
 54 1 66 68 0 0 0 72 0 81 2 68 53 73 1 67 69 0 0 0 0 0 81 1 69 99 74 1 68 11 0 0
 75 0 81 2 11 105 76 1 69 2 0 0 77 0 0 80 2 76 78 79 8004 0 0 0 0 3 5 0 0 0 FFTF
FFFFFFFFFFFF2 3 0 83 1 77 1 0 79 16 79 SDL/TYSA_DENSITY0 80 1 74 73 80 9000 1 1
 1 1 1 1 1 1 0 FFTFFFFFFFFFFFFF1 0 82 1 75 9617 0 79 10 80 BODY_MATCH0 80 2 73 4
4 81 9000 0 0 0 0 3 5 0 0 0 FFTFFFFFFFFFFFFF9 1 0 79 16 81 BODY_RECIPE_20010 80
 2 54 70 82 9000 0 0 0 0 3 5 0 0 0 FFTFFFFFFFFFFFFF9 1 0 82 1 72 46 0 79 30 82 L
AST_BODY_MODIFYING_FEATURE_ID0 80 2 70 83 84 9000 0 0 0 0 3 5 0 0 0 FFTFFFFFFFFF
FFFF9 1 0 82 1 71 105 0 79 19 84 ENT_TIME_STAMP_20010 80 2 10 74 85 9000 0 0 0 0
 3 5 0 0 0 FFTFFFFFFFFFFFFF9 1 0 82 1 12 102 0 79 12 85 ATOM_ID_20010 1 0 
